<svg xmlns="http://www.w3.org/2000/svg" viewBox="0 0 128 128">
  <defs>
    <linearGradient id="roofGrad" x1="0.15" y1="0.05" x2="0.95" y2="0.95">
      <stop offset="0%" stop-color="#FFFCF3"/>
      <stop offset="35%" stop-color="#F4ECD9"/>
      <stop offset="100%" stop-color="#D9CDB1"/>
    </linearGradient>
    <linearGradient id="sideWallGrad" x1="0" y1="0" x2="0" y2="1">
      <stop offset="0%" stop-color="#9c8e72"/>
      <stop offset="100%" stop-color="#7a6e57"/>
    </linearGradient>
    <linearGradient id="glassGrad" x1="0" y1="0" x2="0" y2="1">
      <stop offset="0%" stop-color="#3a3f45"/>
      <stop offset="100%" stop-color="#1c2024"/>
    </linearGradient>
    <linearGradient id="windshieldGrad" x1="0" y1="0" x2="0" y2="1">
      <stop offset="0%" stop-color="#5a626b"/>
      <stop offset="20%" stop-color="#2a2f34"/>
      <stop offset="100%" stop-color="#1a1d20"/>
    </linearGradient>
    <radialGradient id="contactShadow" cx="50%" cy="55%" r="50%">
      <stop offset="0%" stop-color="#000000" stop-opacity="0.40"/>
      <stop offset="50%" stop-color="#000000" stop-opacity="0.18"/>
      <stop offset="100%" stop-color="#000000" stop-opacity="0"/>
    </radialGradient>
    <linearGradient id="sheenGrad" x1="0" y1="0" x2="0" y2="1">
      <stop offset="0%" stop-color="#ffffff" stop-opacity="0.55"/>
      <stop offset="100%" stop-color="#ffffff" stop-opacity="0"/>
    </linearGradient>
  </defs>
  <ellipse cx="65" cy="113" rx="28" ry="6" fill="url(#contactShadow)"/>
  <path d="M89 28 C92 28 93 30 93 33 L93 95 C93 99 91 102 88 102 L86 102 L86 28 Z" fill="url(#sideWallGrad)"/>
  <ellipse cx="38" cy="38" rx="2.5" ry="5" fill="#1c1916" opacity="0.7"/>
  <ellipse cx="38" cy="92" rx="2.5" ry="5" fill="#1c1916" opacity="0.7"/>
  <ellipse cx="90" cy="38" rx="2.5" ry="5" fill="#1c1916" opacity="0.55"/>
  <ellipse cx="90" cy="92" rx="2.5" ry="5" fill="#1c1916" opacity="0.55"/>
  <path d="M40 30 C40 22 48 18 64 18 C80 18 88 22 88 30 L88 95 C88 102 82 106 64 106 C46 106 40 102 40 95 Z" fill="url(#roofGrad)"/>
  <path d="M40 30 C40 22 48 18 64 18 C80 18 88 22 88 30 L88 33 C88 25 80 21 64 21 C48 21 40 25 40 33 Z" fill="#ffffff" opacity="0.4"/>
  <path d="M88 30 L88 95 C88 102 82 106 64 106 L64 103 C80 103 85 100 85 95 L85 30 Z" fill="#000000" opacity="0.07"/>
  <path d="M48 25 C52 22 76 22 80 25 L82 32 C72 30 56 30 46 32 Z" fill="url(#windshieldGrad)"/>
  <path d="M50 25 C56 23 72 23 78 25 L78 27 C72 25 56 25 50 27 Z" fill="url(#sheenGrad)"/>
  <path d="M42 38 C42 36 43 35 45 35 L45 90 C43 90 42 89 42 87 Z" fill="url(#glassGrad)"/>
  <path d="M86 38 C86 36 85 35 83 35 L83 90 C85 90 86 89 86 87 Z" fill="url(#glassGrad)"/>
  <path d="M48 100 C52 102 76 102 80 100 L78 96 C72 97 56 97 50 96 Z" fill="url(#glassGrad)" opacity="0.85"/>
  <ellipse cx="38" cy="30" rx="2.2" ry="2.6" fill="#5a5040"/>
  <ellipse cx="90" cy="30" rx="2.2" ry="2.6" fill="#5a5040"/>
  <path d="M40 30 C40 22 48 18 64 18 C80 18 88 22 88 30 L88 95 C88 102 82 106 64 106 C46 106 40 102 40 95 Z" fill="none" stroke="#3a3327" stroke-opacity="0.45" stroke-width="1"/>
</svg>
